<?xml version="1.0" encoding="UTF-8"?>
<svg width="34px" height="46px" viewBox="0 0 34 46" version="1.1" xmlns="http://www.w3.org/2000/svg" xmlns:xlink="http://www.w3.org/1999/xlink">
    <title>icon_dingwei</title>
    <g id="页面-1" stroke="none" stroke-width="1" fill="none" fill-rule="evenodd">
        <g id="9联系我们" transform="translate(-900.000000, -828.000000)" fill="#00215F" fill-rule="nonzero">
            <g id="1" transform="translate(440.000000, 780.000000)">
                <g id="icon_dingwei" transform="translate(460.000000, 48.000000)">
                    <path d="M16.4988537,10 C12.3568101,10 9,13.3591177 9,17.4988062 C9,21.6408823 12.3568101,25 16.4988537,25 C20.6408973,25 24,21.6408823 24,17.4988062 C24,13.3591177 20.6408973,10 16.4988537,10 Z M16.4988537,22.3687417 C13.8102142,22.3687417 11.6335699,20.1875054 11.6335699,17.4988062 C11.6335699,14.8124946 13.8102142,12.6336001 16.4988537,12.6336001 C19.1874931,12.6336001 21.3687686,14.8124946 21.3687686,17.4988062 C21.3687686,20.1875054 19.1874931,22.3687417 16.4988537,22.3687417 Z" id="形状"></path>
                    <path d="M0,17.134356 C0,20.216724 1.6546059,24.368638 4.60089276,29.424544 C5.62786595,31.179628 6.79407507,33.019766 8.07436193,34.915242 C9.80653887,37.477718 11.6642332,40.012548 13.51737,42.411632 C14.1677909,43.251178 14.770311,44.014962 15.3111662,44.686608 C15.538979,44.9695988 15.7687199,45.2510028 16.0003727,45.5308 C16.5207185,46.1564 17.4815147,46.1564 18.0018606,45.5308 C18.1296568,45.376654 18.3647399,45.0915 18.6933458,44.686608 C19.2966726,43.9338481 19.8931108,43.1754906 20.4825845,42.411632 C22.3402788,40.012548 24.1934155,37.477718 25.9255925,34.915242 C27.2058794,33.019766 28.3743673,31.179628 29.3967828,29.424544 C32.3453941,24.368638 34,20.216724 34,17.134356 C34,14.864026 33.5161609,12.625988 32.6010322,10.316512 C32.3317212,9.644866 31.5695013,9.313666 30.9008043,9.585066 C30.2321072,9.854212 29.9057802,10.622458 30.1704879,11.29875 C30.9692601,13.309226 31.3868767,15.22531 31.3868767,17.134402 C31.3868767,19.60957 29.8669491,23.414138 27.1443056,28.090406 C26.1492815,29.792682 25.0173003,31.584566 23.7689625,33.426958 C22.0687346,35.941134 20.2452681,38.434564 18.4218016,40.79234 C17.9151743,41.445586 17.4427292,42.048324 17,42.602578 C16.5595496,42.048278 16.0848257,41.445586 15.5804772,40.79234 C13.7570107,38.434564 11.9358231,35.941134 10.2333164,33.426958 C8.98497855,31.584566 7.84843968,29.792682 6.85797319,28.090406 C4.13305094,23.414138 2.61540214,19.60957 2.61540214,17.134402 C2.61540214,9.161774 9.09226542,2.636076 17,2.636076 C19.6815791,2.636076 22.3243271,3.441122 24.6726971,4.936306 C25.2820536,5.325052 26.089941,5.141006 26.4778874,4.526906 C26.8612761,3.912668 26.6810214,3.098376 26.0693861,2.70963 C23.3102359,0.952292 20.1859276,0 17,0 C7.64530563,0 0,7.705736 0,17.134356" id="路径"></path>
                </g>
            </g>
        </g>
    </g>
</svg>