<?xml version="1.0" encoding="UTF-8"?>
<svg width="36px" height="30px" viewBox="0 0 36 30" version="1.1" xmlns="http://www.w3.org/2000/svg" xmlns:xlink="http://www.w3.org/1999/xlink">
    <title>icon_mail2</title>
    <g id="页面-1" stroke="none" stroke-width="1" fill="none" fill-rule="evenodd">
        <g id="联系我们" transform="translate(-1008.000000, -1025.000000)" fill="#00215F" fill-rule="nonzero" stroke="#00215F">
            <g id="1" transform="translate(440.000000, 840.000000)">
                <g id="编组-3" transform="translate(569.000000, 61.000000)">
                    <g id="icon_mail2" transform="translate(0.000000, 125.000000)">
                        <path d="M30.4210567,28 L3.57894326,28 C1.60503934,28 0,26.4303727 0,24.500019 L0,3.5000951 C0,1.57019799 1.60503934,0 3.57894326,0 L30.4210567,0 C32.3949606,0 34,1.57019799 34,3.5000951 L34,7.00007607 C34,7.41493795 33.7046204,7.76177847 33.3087971,7.85243556 C32.2873589,8.25405839 23.0770262,13.3523513 17.4447809,16.5087635 C17.1563259,16.6704094 16.8016993,16.6617736 16.5193907,16.4882962 L6.67729668,10.3633295 C6.2605832,10.1039885 6.13730417,9.56305125 6.40296291,9.15518933 C6.66858275,8.74755567 7.22086816,8.62745305 7.63847637,8.88679406 L17.0244885,14.728034 C27.2361084,9.00720101 30.8509578,7.09020053 32.2105283,6.44848666 L32.2105283,3.50009507 C32.2105283,2.53497531 31.4074835,1.75010458 30.4210567,1.75010458 L3.57894326,1.75010458 C2.59247756,1.75010458 1.78947163,2.53497531 1.78947163,3.50009507 L1.78947163,24.500019 C1.78947163,25.4647203 2.59251648,26.2500095 3.57894326,26.2500095 L30.4210567,26.2500095 C31.4075224,26.2500095 32.2105283,25.4646822 32.2105283,24.500019 L32.2105283,14.000076 C32.2105283,13.5169646 32.6107087,13.1250808 33.1052642,13.1250808 C33.599703,13.1250808 34,13.5169645 34,14.000076 L34,24.500019 C34,26.4303726 32.3949606,28 30.4210567,28 Z" id="路径"></path>
                    </g>
                </g>
            </g>
        </g>
    </g>
</svg>